<?xml version="1.0" standalone="no"?>
<!DOCTYPE svg PUBLIC "-//W3C//DTD SVG 20010904//EN"
 "http://www.w3.org/TR/2001/REC-SVG-20010904/DTD/svg10.dtd">
<svg version="1.0" xmlns="http://www.w3.org/2000/svg"
 width="300.000000pt" height="112.000000pt" viewBox="0 0 300.000000 112.000000"
 preserveAspectRatio="xMidYMid meet">
<metadata>
Created by potrace 1.10, written by Peter Selinger 2001-2011
</metadata>
<g transform="translate(0.000000,112.000000) scale(0.100000,-0.100000)"
fill="#000000" stroke="none">
<path d="M146 1085 c-50 -18 -94 -60 -107 -105 -6 -22 -9 -167 -7 -395 l3
-360 24 -34 c45 -63 79 -71 319 -71 l212 0 0 35 0 35 -213 0 c-226 0 -242 3
-267 51 -7 12 -11 144 -12 367 -1 381 -1 379 58 407 48 22 731 22 774 0 54
-28 60 -55 60 -260 l0 -185 36 0 36 0 -4 203 c-3 178 -5 206 -22 234 -25 41
-62 68 -112 82 -61 17 -728 14 -778 -4z m6 -43 c-24 -8 -64 -46 -73 -70 -5
-13 -10 -148 -10 -298 -1 -151 -5 -274 -10 -274 -4 0 -8 123 -8 273 0 248 2
275 20 312 20 41 81 91 88 72 2 -6 -1 -13 -7 -15z m795 13 c17 -7 43 -31 56
-52 24 -37 25 -45 25 -221 1 -116 -2 -181 -9 -177 -5 4 -9 76 -8 176 0 189 -5
213 -57 249 -33 22 -35 22 -409 21 -226 0 -375 3 -375 9 0 16 738 11 777 -5z
m-878 -731 c1 -75 23 -122 68 -145 20 -10 85 -15 223 -20 l195 -6 -212 1 -212
1 -31 30 c-16 16 -34 45 -39 65 -14 55 -12 140 3 140 2 0 4 -30 5 -66z"/>
<path d="M1435 1054 c-5 -1 -27 -5 -48 -9 -47 -8 -104 -57 -128 -110 -39 -86
-18 -227 42 -282 75 -69 207 -71 283 -4 16 14 56 82 56 96 0 3 -22 5 -49 5
-41 0 -51 -4 -56 -20 -9 -28 -53 -60 -84 -60 -98 0 -152 142 -96 250 17 33 61
60 98 60 29 0 73 -33 82 -60 5 -16 15 -20 56 -20 l49 0 -15 37 c-19 44 -50 80
-85 98 -26 13 -88 24 -105 19z m91 -45 c35 -15 74 -54 74 -74 0 -15 -40 -2
-53 19 -9 12 -32 31 -51 40 -52 25 -105 8 -148 -46 -29 -37 -33 -50 -36 -112
-2 -54 1 -80 15 -106 25 -48 76 -80 128 -80 34 0 47 6 75 35 35 36 60 45 60
21 0 -26 -66 -73 -113 -80 -89 -14 -154 19 -193 100 -24 49 -26 61 -19 121 10
97 41 143 112 168 51 18 99 16 149 -6z"/>
<path d="M1650 933 c0 -2 22 -34 48 -71 27 -37 52 -73 56 -80 7 -11 -82 -147
-108 -164 -18 -12 -3 -15 47 -10 45 4 51 7 78 51 16 25 32 46 34 46 2 0 18
-21 34 -46 27 -44 33 -47 78 -51 26 -3 49 -4 51 -3 1 2 -22 39 -53 83 -30 44
-55 83 -55 86 0 3 25 40 55 81 30 40 55 76 55 78 0 2 -21 3 -47 2 -46 -2 -49
-3 -79 -53 -34 -57 -35 -57 -73 13 -21 38 -24 40 -71 40 -28 0 -50 -1 -50 -2z
m105 -63 c13 -21 34 -44 45 -50 17 -9 24 -4 56 40 20 27 42 50 51 50 16 0 14
-4 -34 -71 -38 -53 -41 -76 -14 -110 51 -66 65 -135 15 -74 -56 68 -63 75 -73
75 -6 0 -27 -22 -47 -50 -32 -45 -54 -62 -54 -42 0 4 20 36 45 71 24 35 42 69
38 75 -3 6 -21 32 -40 57 -18 26 -33 52 -33 58 0 23 21 10 45 -29z"/>
<path d="M333 868 l-52 -52 -25 23 c-28 26 -59 25 -64 -3 -4 -21 64 -96 88
-96 25 0 153 134 148 156 -7 37 -41 26 -95 -28z m51 0 c-34 -39 -95 -98 -103
-98 -4 0 -18 11 -31 25 -13 14 -19 25 -13 25 6 0 16 -7 23 -15 20 -24 33 -18
80 35 24 28 49 50 54 50 5 0 1 -10 -10 -22z"/>
<path d="M504 855 c-4 -8 -4 -22 0 -30 5 -13 33 -15 193 -13 l188 3 0 25 0 25
-188 3 c-160 2 -188 0 -193 -13z m271 -20 c6 -2 -48 -3 -120 -3 -81 1 -111 3
-80 7 50 6 181 4 200 -4z m39 7 c3 -5 -1 -9 -9 -9 -8 0 -12 4 -9 9 3 4 7 8 9
8 2 0 6 -4 9 -8z"/>
<path d="M338 644 l-56 -57 -28 27 c-31 28 -42 29 -58 3 -9 -13 -2 -25 34 -62
24 -25 49 -45 55 -45 16 0 145 134 145 151 0 15 -18 39 -30 39 -3 0 -31 -25
-62 -56z m23 -31 c-63 -71 -78 -79 -103 -57 -11 11 -25 28 -30 39 -8 15 -3 13
19 -8 l30 -28 26 21 c15 12 40 34 56 51 46 46 47 34 2 -18z"/>
<path d="M510 645 c-6 -8 -10 -22 -8 -32 3 -16 17 -18 117 -21 133 -3 167 11
125 52 -22 22 -216 23 -234 1z m190 -26 c0 -10 -159 -9 -165 1 -3 5 33 8 80 8
47 0 85 -4 85 -9z"/>
<path d="M811 600 c-5 -3 -11 -16 -12 -29 -3 -15 -17 -32 -35 -43 -30 -18 -33
-18 -62 -1 -29 17 -31 17 -52 -2 -39 -35 -44 -55 -22 -84 17 -24 18 -30 7 -52
-7 -13 -24 -26 -37 -29 -21 -5 -23 -12 -23 -60 0 -54 0 -55 31 -58 38 -4 60
-41 43 -73 -14 -27 -3 -55 32 -80 29 -20 31 -20 49 -4 28 25 68 13 72 -23 3
-25 6 -27 53 -27 44 0 50 3 53 22 2 13 13 29 24 37 18 13 24 12 50 -7 l29 -21
36 37 c34 34 36 38 23 61 -19 36 -1 73 37 78 27 3 28 6 31 60 3 55 2 57 -25
60 -17 2 -32 12 -40 27 -10 21 -9 29 9 54 l21 29 -35 35 c-34 34 -36 35 -65
20 -27 -15 -32 -14 -61 3 -20 13 -32 28 -34 47 -3 26 -6 28 -46 28 -23 1 -46
-2 -51 -5z m79 -39 c0 -22 41 -58 76 -67 12 -3 31 -1 42 5 14 7 24 7 38 -3 17
-13 17 -18 6 -48 -6 -19 -12 -41 -12 -49 1 -21 33 -56 56 -61 30 -5 27 -55 -4
-71 -15 -6 -35 -27 -45 -45 -17 -29 -18 -36 -6 -59 12 -23 11 -27 -10 -44 -20
-17 -26 -17 -50 -4 -38 19 -67 9 -86 -31 -22 -46 -54 -46 -79 0 -20 38 -46 47
-88 32 -41 -15 -59 6 -52 58 5 36 3 45 -19 66 -14 14 -31 26 -36 26 -6 1 -15
2 -21 3 -5 0 -10 15 -10 31 0 23 6 33 25 40 13 5 32 24 41 41 15 30 15 34 -1
62 -17 28 -17 30 2 49 17 16 23 17 46 7 38 -17 102 12 116 52 8 23 16 29 40
29 24 0 31 -4 31 -19z"/>
<path d="M823 470 c-106 -15 -161 -147 -100 -239 33 -50 75 -73 133 -73 87 0
154 68 154 155 0 58 -19 98 -62 130 -39 29 -67 35 -125 27z m97 -35 c39 -20
70 -74 70 -121 0 -96 -105 -163 -188 -120 -72 38 -99 112 -66 181 32 67 116
95 184 60z"/>
<path d="M1240 343 l0 -158 25 0 25 0 1 110 c0 70 3 103 9 90 5 -11 25 -60 45
-110 32 -77 40 -90 61 -90 20 0 28 12 59 92 19 51 35 97 35 102 0 6 4 12 9 15
5 3 6 -41 3 -102 l-5 -109 32 0 31 0 0 159 0 158 -38 0 -39 0 -37 -102 c-21
-57 -40 -110 -42 -118 -5 -13 -94 187 -94 210 0 6 -18 10 -40 10 l-40 0 0
-157z m68 102 c16 -35 16 -53 0 -37 -9 9 -15 9 -27 -2 -14 -13 -16 -10 -18 25
-1 31 3 39 16 39 10 0 23 -11 29 -25z m232 -12 c0 -29 -3 -34 -12 -25 -9 9
-16 8 -30 -5 -22 -20 -22 -16 -3 31 20 48 45 48 45 -1z m-124 -179 c16 6 17 4
8 -18 -9 -24 -29 -19 -42 9 -16 35 -15 39 4 20 9 -9 23 -14 30 -11z"/>
<path d="M198 413 c-5 -7 -8 -20 -6 -30 3 -16 18 -18 156 -21 134 -2 153 -1
159 14 3 9 2 24 -3 32 -8 12 -37 15 -153 16 -100 1 -146 -3 -153 -11z m277
-23 c-7 -11 -210 -11 -240 0 -11 5 39 8 113 9 84 1 131 -3 127 -9z"/>
<path d="M1670 413 c-50 -19 -69 -73 -25 -73 14 0 25 4 25 10 0 5 9 14 20 20
25 14 60 -3 60 -29 0 -15 -10 -19 -52 -23 -57 -6 -88 -32 -88 -74 0 -51 89
-87 120 -49 15 18 30 19 30 2 0 -7 10 -13 23 -15 23 -1 23 0 19 96 -3 88 -6
99 -28 120 -24 21 -69 28 -104 15z m110 -119 c0 -8 -4 -12 -10 -9 -5 3 -10 13
-10 21 0 8 5 12 10 9 6 -3 10 -13 10 -21z m-30 -23 c0 -46 -70 -69 -78 -27 -5
23 23 46 55 46 16 0 23 -6 23 -19z m26 -48 c-10 -10 -19 5 -10 18 6 11 8 11
12 0 2 -7 1 -15 -2 -18z"/>
<path d="M1860 300 l0 -115 29 -1 29 -1 0 86 c0 70 4 87 18 98 22 16 26 16 50
-1 16 -12 19 -28 21 -97 2 -81 2 -82 27 -84 l26 -1 0 94 c0 85 -2 95 -25 117
-28 29 -70 32 -103 9 -17 -11 -22 -12 -22 -2 0 7 -11 13 -25 13 l-25 0 0 -115z
m40 68 c0 -7 -5 -20 -10 -28 -8 -11 -9 -9 -8 13 2 26 18 40 18 15z"/>
<path d="M2154 411 c-21 -9 -54 -48 -54 -63 0 -17 56 -7 68 12 15 24 35 26 56
4 29 -28 19 -41 -36 -46 -38 -4 -57 -12 -70 -28 -53 -65 29 -144 99 -95 15 11
22 12 25 3 2 -6 14 -12 26 -13 21 -2 22 2 22 91 0 73 -4 96 -18 114 -19 24
-84 35 -118 21z m112 -108 c-10 -10 -19 5 -10 18 6 11 8 11 12 0 2 -7 1 -15
-2 -18z m-26 -26 c0 -22 -30 -57 -49 -57 -10 0 -24 7 -31 15 -10 13 -10 19 5
35 20 22 75 27 75 7z m30 -47 c0 -5 -4 -10 -10 -10 -5 0 -10 5 -10 10 0 6 5
10 10 10 6 0 10 -4 10 -10z"/>
<path d="M2382 404 c-105 -73 -31 -245 86 -198 29 12 32 11 32 -4 0 -25 -26
-59 -50 -65 -11 -3 -30 3 -44 14 -13 10 -36 19 -50 19 -26 0 -26 -1 -11 -29
29 -57 133 -65 181 -14 23 25 24 33 24 158 l0 132 -25 -5 c-14 -2 -25 -9 -25
-14 0 -5 -10 -2 -22 6 -29 20 -67 20 -96 0z m97 -50 c25 -32 27 -61 5 -92 -31
-44 -94 -16 -94 43 0 33 15 59 40 68 25 9 28 8 49 -19z m51 5 c0 -18 -2 -19
-15 -9 -8 7 -15 16 -15 21 0 5 7 9 15 9 9 0 15 -9 15 -21z m-5 -137 c-13 -13
-23 22 -12 40 11 17 12 17 15 -8 2 -14 1 -29 -3 -32z"/>
<path d="M2628 391 c-31 -27 -33 -34 -33 -91 0 -57 2 -64 33 -91 45 -41 102
-41 143 0 16 16 29 34 29 40 0 20 -54 12 -68 -9 -7 -11 -20 -20 -31 -20 -22 0
-51 30 -51 53 0 14 12 17 75 17 73 0 75 1 75 25 0 92 -103 138 -172 76z m102
-31 c32 -32 24 -40 -36 -40 -58 0 -60 3 -26 43 20 22 37 22 62 -3z m-97 -63
c-3 -5 -10 -4 -15 1 -6 6 -7 16 -3 22 6 9 9 9 16 -1 4 -7 5 -17 2 -22z"/>
<path d="M2840 299 l0 -116 30 0 30 0 0 78 c0 72 2 80 25 95 13 8 29 13 35 9
6 -4 10 6 10 24 0 38 -29 42 -60 9 -19 -21 -20 -21 -20 -2 0 14 -7 19 -25 19
l-25 0 0 -116z m43 51 c-7 -28 -13 -25 -13 6 0 14 4 23 9 20 5 -3 7 -15 4 -26z"/>
</g>
</svg>
