<?xml version="1.0" standalone="no"?>
<!DOCTYPE svg PUBLIC "-//W3C//DTD SVG 20010904//EN"
 "http://www.w3.org/TR/2001/REC-SVG-20010904/DTD/svg10.dtd">
<svg version="1.0" xmlns="http://www.w3.org/2000/svg"
 width="900.000000pt" height="336.000000pt" viewBox="0 0 900.000000 336.000000"
 preserveAspectRatio="xMidYMid meet">
<metadata>
Created by potrace 1.10, written by Peter Selinger 2001-2011
</metadata>
<g transform="translate(0.000000,336.000000) scale(0.100000,-0.100000)"
fill="#000000" stroke="none">
<path d="M559 3276 c-3 -3 -32 -10 -65 -15 -189 -29 -327 -156 -397 -366 -16
-46 -17 -144 -17 -1093 0 -904 2 -1047 15 -1079 8 -19 15 -42 15 -50 0 -20 66
-121 109 -167 58 -61 135 -108 216 -129 26 -7 262 -12 667 -14 610 -3 627 -3
633 16 9 29 8 152 -2 162 -4 4 -282 9 -618 11 l-610 3 -52 30 c-91 52 -137
105 -170 195 -18 50 -18 1994 0 2060 28 103 104 181 218 223 42 16 129 17
1130 15 l1084 -3 57 -29 c59 -30 113 -80 141 -131 48 -87 47 -75 47 -644 0
-295 4 -542 8 -549 11 -17 140 -14 170 5 l24 15 -6 531 c-4 501 -11 628 -34
673 -5 10 -18 37 -28 59 -10 22 -50 72 -89 110 -81 82 -173 132 -269 147 -64
10 -2167 23 -2177 14z"/>
<path d="M4225 3141 c-125 -16 -227 -66 -330 -162 -51 -49 -73 -79 -108 -152
-68 -142 -70 -148 -74 -333 -4 -154 -3 -179 17 -250 12 -43 26 -83 31 -89 5
-5 9 -16 9 -25 0 -10 14 -36 30 -58 17 -23 30 -45 30 -50 0 -4 28 -34 63 -67
118 -112 257 -164 436 -165 109 0 202 17 263 49 128 66 191 128 252 248 41 82
57 136 43 145 -7 4 -68 7 -136 6 -99 -2 -125 -6 -131 -18 -36 -77 -50 -99 -86
-135 -88 -91 -216 -110 -336 -51 -140 70 -212 218 -211 436 1 112 13 173 54
256 64 133 169 204 300 204 51 0 81 -6 110 -20 62 -32 119 -90 148 -150 l26
-55 128 -3 127 -3 0 42 c0 22 -6 53 -14 67 -7 15 -22 45 -32 67 -23 49 -157
186 -204 209 -106 52 -262 74 -405 57z"/>
<path d="M4995 2780 c-16 -3 -29 -11 -28 -17 3 -15 53 -89 143 -210 114 -155
165 -231 165 -243 0 -13 -59 -96 -227 -325 -60 -80 -108 -150 -108 -155 0 -11
87 -15 236 -11 29 1 38 10 101 109 38 59 80 126 93 150 13 23 29 42 36 42 11
0 55 -62 78 -110 8 -18 19 -36 75 -122 l43 -68 134 0 c107 0 134 3 134 14 0 7
-7 19 -15 26 -8 7 -15 17 -15 22 0 6 -13 27 -30 48 -16 21 -30 40 -30 44 0 3
-24 40 -52 81 -29 42 -57 84 -63 93 -5 10 -31 49 -57 89 -27 39 -48 74 -48 78
0 4 16 28 35 53 20 26 83 112 140 192 57 80 113 157 124 172 24 30 27 47 9 50
-7 0 -66 2 -131 3 l-117 2 -23 -31 c-13 -17 -27 -38 -30 -46 -4 -8 -15 -27
-25 -41 -9 -15 -36 -58 -60 -98 -24 -39 -49 -71 -56 -71 -12 0 -66 61 -66 74
0 3 -12 22 -26 43 -14 21 -30 47 -35 58 -11 24 -27 50 -52 85 -17 23 -24 25
-120 26 -56 0 -115 -2 -132 -6z"/>
<path d="M992 2594 c-170 -177 -152 -171 -242 -80 -49 50 -59 56 -97 56 -63 0
-106 -54 -87 -112 4 -13 57 -74 119 -135 128 -128 143 -134 211 -84 45 33 342
333 367 371 42 62 -2 140 -79 140 -41 0 -45 -3 -192 -156z"/>
<path d="M1517 2575 c-52 -49 -27 -149 38 -155 11 -1 255 -2 542 -1 l521 1 21
34 c29 47 27 82 -8 117 l-29 29 -529 0 -528 0 -28 -25z"/>
<path d="M1163 2063 c-20 -4 -99 -80 -256 -245 -30 -32 -61 -58 -68 -58 -7 0
-43 29 -80 65 -69 67 -91 75 -141 56 -13 -5 -32 -25 -43 -44 l-19 -35 26 -39
c40 -59 206 -222 234 -229 13 -3 39 0 57 7 53 21 392 371 403 415 10 37 -21
90 -59 103 -16 6 -30 10 -31 10 -1 -1 -11 -4 -23 -6z"/>
<path d="M1550 1949 c-63 -25 -81 -111 -33 -161 l27 -28 326 0 327 0 21 23
c46 48 37 132 -16 157 -33 16 -613 24 -652 9z"/>
<path d="M2433 1790 c-29 -12 -43 -40 -43 -87 0 -62 -27 -93 -124 -142 l-87
-44 -52 36 c-76 51 -94 58 -123 51 -36 -9 -174 -169 -174 -201 0 -14 20 -51
45 -85 57 -76 58 -82 22 -158 -35 -74 -54 -90 -107 -90 -36 0 -52 -5 -68 -23
-20 -21 -22 -34 -22 -153 0 -127 1 -131 25 -154 21 -20 39 -25 96 -28 69 -4
71 -5 95 -43 13 -21 24 -43 24 -48 0 -5 7 -14 15 -21 23 -19 18 -56 -15 -115
-16 -30 -30 -61 -30 -70 0 -27 55 -99 111 -146 69 -57 105 -59 173 -6 59 45
86 46 149 7 45 -29 47 -32 47 -76 0 -30 8 -59 21 -80 l21 -34 123 0 c122 0
124 0 144 26 14 18 21 41 21 71 0 39 5 50 37 79 58 53 90 54 164 5 63 -42 94
-49 132 -30 36 19 137 122 154 158 16 34 16 35 -15 95 -38 72 -39 82 -9 138
47 87 48 88 100 88 54 0 112 23 122 48 3 9 6 74 6 146 0 122 -1 132 -21 148
-13 11 -39 18 -62 18 -72 0 -92 19 -141 132 l-16 37 47 63 c64 88 64 119 -3
185 -121 117 -137 122 -231 72 -67 -36 -80 -34 -184 27 -62 36 -80 64 -80 128
0 32 -6 48 -23 64 -21 20 -34 22 -133 21 -60 0 -119 -4 -131 -9z m293 -482
c89 -43 160 -116 201 -207 32 -69 34 -83 34 -172 0 -89 -2 -103 -30 -159 -57
-115 -121 -172 -251 -222 -115 -45 -304 -3 -403 90 -40 38 -90 118 -111 179
-29 84 -19 209 22 293 44 92 124 172 207 209 84 38 241 32 331 -11z"/>
<path d="M4488 1482 c-15 -3 -30 -36 -105 -237 -9 -22 -19 -49 -24 -60 -5 -11
-13 -33 -18 -50 -5 -16 -19 -55 -31 -85 -11 -30 -30 -82 -41 -115 -32 -92 -49
-125 -64 -125 -8 0 -15 7 -15 15 0 8 -6 29 -14 47 -8 18 -24 58 -36 88 -11 30
-25 64 -30 75 -19 47 -130 314 -150 365 -12 30 -27 61 -32 68 -7 8 -43 12
-114 12 l-104 0 2 -462 3 -463 70 0 70 0 5 308 c5 292 12 357 32 280 5 -18 13
-35 18 -38 6 -3 10 -14 10 -23 0 -9 27 -80 60 -157 33 -77 60 -143 60 -147 0
-7 12 -35 80 -185 l20 -43 65 0 65 0 20 43 c11 23 40 96 65 162 25 66 50 129
55 140 5 11 19 45 30 75 12 30 28 70 36 88 8 18 14 39 14 47 0 8 11 27 24 42
l25 28 -3 -298 c-3 -251 -1 -300 11 -312 16 -16 109 -21 131 -6 11 6 13 97 13
461 -1 249 -2 454 -4 456 -4 3 -183 9 -199 6z"/>
<path d="M617 1252 c-26 -11 -57 -62 -57 -95 0 -18 11 -39 29 -58 l29 -29 418
0 418 0 28 27 c36 35 38 86 4 128 l-24 30 -414 2 c-227 1 -421 -2 -431 -5z"/>
<path d="M5010 1226 c-34 -11 -83 -39 -107 -62 -25 -24 -54 -94 -51 -121 3
-27 5 -28 71 -31 57 -2 68 0 73 15 15 47 32 68 72 85 42 19 45 19 91 2 31 -11
54 -27 65 -45 19 -32 21 -105 4 -111 -7 -3 -45 -6 -85 -7 -39 -1 -101 -10
-137 -21 -98 -28 -144 -65 -166 -135 -46 -143 52 -261 215 -259 58 1 113 22
156 60 22 20 49 18 49 -4 0 -29 21 -42 70 -42 77 0 74 -13 67 268 -5 224 -8
255 -26 296 -38 83 -125 126 -251 125 -41 -1 -91 -6 -110 -13z m230 -419 c0
-89 -63 -157 -145 -157 -48 0 -93 34 -101 76 -14 77 59 132 179 133 l67 1 0
-53z"/>
<path d="M5822 1224 c-19 -8 -45 -26 -60 -39 -29 -27 -42 -24 -42 10 0 29 -5
31 -85 27 l-65 -4 2 -331 3 -332 65 -3 c36 -1 71 2 78 6 9 6 13 66 16 228 2
126 8 231 15 247 25 64 94 97 159 76 93 -30 114 -97 110 -354 -1 -100 2 -186
6 -193 10 -16 118 -16 134 0 9 9 12 73 12 226 0 262 -12 322 -76 387 -23 23
-59 46 -82 53 -53 16 -149 14 -190 -4z"/>
<path d="M6460 1222 c-64 -22 -135 -96 -144 -151 -3 -23 -4 -46 -1 -52 4 -5
33 -9 65 -9 58 0 59 1 87 42 33 50 64 68 116 68 52 0 93 -23 106 -61 15 -42
14 -84 -1 -96 -7 -6 -53 -13 -103 -16 -109 -7 -195 -36 -239 -79 -26 -27 -56
-99 -56 -138 0 -42 29 -109 60 -140 26 -26 116 -60 159 -60 49 0 124 30 158
63 l33 31 11 -32 c12 -34 45 -46 110 -40 l34 3 3 250 c2 214 0 256 -14 294
-23 61 -73 106 -138 125 -67 20 -186 19 -246 -2z m248 -403 c2 -19 -6 -56 -17
-82 -47 -108 -210 -118 -237 -13 -9 38 23 87 76 114 36 18 58 22 110 20 l65
-3 3 -36z"/>
<path d="M7182 1223 c-82 -29 -158 -123 -181 -225 -20 -85 -6 -221 26 -259 7
-8 13 -20 13 -26 0 -18 70 -82 113 -105 34 -18 59 -22 132 -22 84 -1 94 2 142
31 29 18 54 29 57 24 7 -11 -1 -83 -15 -129 -37 -126 -195 -159 -284 -61 -34
38 -36 39 -105 39 -70 0 -70 0 -70 -28 0 -48 61 -122 125 -151 70 -32 110 -41
181 -41 140 0 245 60 297 170 21 43 22 60 25 409 2 221 -1 367 -7 370 -5 3
-38 4 -75 3 -54 -3 -66 -7 -71 -23 -5 -15 -12 -18 -28 -13 -12 4 -25 11 -28
17 -23 35 -170 47 -247 20z m205 -121 c118 -64 137 -265 34 -359 -32 -30 -42
-33 -96 -33 -53 0 -65 4 -98 31 -56 46 -71 82 -71 169 0 82 13 117 61 162 52
49 114 60 170 30z"/>
<path d="M7972 1226 c-17 -7 -37 -17 -44 -24 -7 -7 -17 -12 -23 -12 -13 0 -74
-65 -92 -97 -88 -157 -60 -373 61 -480 87 -76 244 -101 348 -55 65 29 126 86
139 132 18 60 9 70 -60 70 -57 0 -91 -15 -91 -41 0 -19 -83 -69 -114 -69 -76
1 -150 79 -158 165 l-3 40 225 5 225 5 -1 58 c-4 200 -124 319 -316 316 -34
-1 -78 -7 -96 -13z m163 -112 c47 -22 87 -83 83 -126 l-3 -33 -140 0 -140 0 3
34 c4 51 39 101 86 122 50 23 69 23 111 3z"/>
<path d="M8768 1225 c-15 -8 -39 -26 -54 -40 -36 -33 -54 -32 -54 4 0 35 -8
38 -82 33 l-58 -4 0 -328 c0 -290 2 -329 16 -334 22 -8 117 -7 130 2 8 5 13
77 16 218 4 198 5 212 27 247 27 44 75 67 137 67 51 0 57 13 52 96 l-3 49 -50
2 c-30 2 -61 -3 -77 -12z"/>
</g>
</svg>
